<svg width="110" height="50" viewBox="0 0 110 50" fill="none" xmlns="http://www.w3.org/2000/svg">
<path fill-rule="evenodd" clip-rule="evenodd" d="M0.5 50L5.3157 41.201C3.30929 34.9913 4.72862 30.8135 10.0719 22.5922L14.1147 27.4078L13.1635 18.371C16.3156 15.0842 18.1161 13.2764 21.6058 10.3448L24.4596 19.7384L25.7675 7.49108C35.9003 2.29972 41.8703 0.695086 52.997 0C54.2652 10.1824 51.4902 15.6658 43.7818 25.2675L27.4917 26.2188L39.2039 28.7158C26.1682 39.7601 19.3765 43.3184 8.58561 42.9251L0.5 50ZM46.2666 7.45824C38.565 12.1513 18.562 26.7835 8.58561 40.0119C19.6235 24.6711 27.607 16.7571 46.2666 7.45824C48.0838 6.35094 49.2161 5.79697 49.3704 5.9453C48.3035 6.45453 47.2697 6.95838 46.2666 7.45824Z" fill="#36B3E9"/>
<path d="M59.1792 20.619C59.5136 20.6525 59.7923 20.6804 60.0153 20.7027C60.2494 20.7249 60.4389 20.7417 60.5838 20.7528C60.751 20.764 60.8848 20.7695 60.9851 20.7695C61.0854 20.7807 61.2192 20.7807 61.3864 20.7695C61.5313 20.7584 61.7208 20.7472 61.9549 20.7361C62.189 20.7138 62.4844 20.6804 62.8412 20.6358C62.7631 20.7472 62.7018 20.8476 62.6572 20.9368C62.6126 21.0148 62.5736 21.0872 62.5402 21.1541L62.4398 21.3548C62.4176 21.4217 62.3953 21.4885 62.373 21.5554C62.3507 21.6112 62.3284 21.6781 62.3061 21.7561C62.2949 21.8341 62.2838 21.9177 62.2726 22.0069H64.8477L64.6136 23.3613L62.2559 23.2276C62.2002 23.7961 62.1612 24.2364 62.1389 24.5485C62.1166 24.8607 62.0943 25.0892 62.072 25.2341L62.0385 25.5351C62.0051 25.9587 61.9717 26.4213 61.9382 26.9229C61.9048 27.4134 61.8936 27.8705 61.9048 28.2941C61.9159 28.7177 61.9549 29.0744 62.0218 29.3642C62.0887 29.6429 62.2058 29.7822 62.373 29.7822C62.5402 29.7822 62.6962 29.7377 62.8412 29.6485C62.9861 29.5593 63.1087 29.4534 63.209 29.3308C63.3205 29.2082 63.4041 29.0855 63.4598 28.9629C63.5156 28.8291 63.5434 28.7288 63.5434 28.6619C63.5434 28.595 63.5267 28.517 63.4933 28.4278C63.4375 28.2606 63.3372 28.0488 63.1923 27.7924C63.5156 27.8705 63.7998 27.9485 64.0451 28.0265C64.1677 28.0711 64.2792 28.1157 64.3795 28.1603C64.491 28.2049 64.6192 28.255 64.7641 28.3108C64.8867 28.3665 65.0428 28.4334 65.2323 28.5114C65.4218 28.5895 65.6447 28.6842 65.9011 28.7957C65.6559 28.8403 65.4775 28.9127 65.3661 29.0131C65.2992 29.0577 65.249 29.1078 65.2156 29.1636C65.1375 29.2862 65.0484 29.4534 64.948 29.6652C64.8477 29.8659 64.6972 30.0665 64.4966 30.2672C64.2959 30.4678 64.0228 30.6462 63.6772 30.8022C63.3428 30.9583 62.8913 31.0475 62.3228 31.0698C61.732 31.0921 61.2805 30.9917 60.9684 30.7688C60.6674 30.5458 60.4445 30.2895 60.2995 29.9996C60.1658 29.6986 60.0877 29.4032 60.0654 29.1134C60.0431 28.8236 60.0264 28.6285 60.0153 28.5282C60.0041 28.4278 60.0041 28.177 60.0153 27.7757C60.0264 27.3744 60.0431 26.9341 60.0654 26.4547C60.0877 25.9642 60.11 25.4961 60.1323 25.0502C60.1546 24.5931 60.1658 24.2587 60.1658 24.0469C60.1658 23.9354 60.1713 23.8184 60.1825 23.6957C60.1825 23.5954 60.1825 23.4895 60.1825 23.378C60.1936 23.2554 60.1992 23.1384 60.1992 23.0269L57.7746 23.0102L57.6743 22.0571L60.1156 22.124C60.0933 22.0013 60.0654 21.8899 60.032 21.7895C60.0097 21.6781 59.9874 21.5889 59.9651 21.522C59.9317 21.444 59.8982 21.3771 59.8648 21.3213C59.8202 21.2656 59.77 21.2043 59.7143 21.1374C59.6586 21.0817 59.5861 21.0092 59.4969 20.92C59.4077 20.8309 59.3018 20.7305 59.1792 20.619Z" fill="black"/>
<path d="M64.1956 23.4449C64.53 23.4672 64.8254 23.4839 65.0818 23.4951C65.3493 23.5062 65.5723 23.5174 65.7506 23.5285C65.9513 23.5397 66.1297 23.5453 66.2857 23.5453C66.4418 23.5453 66.6201 23.5397 66.8208 23.5285C66.9992 23.5174 67.2165 23.5007 67.4729 23.4784C67.7405 23.4449 68.047 23.4003 68.3926 23.3446C68.125 23.5118 67.9077 23.6679 67.7405 23.8128C67.5844 23.9466 67.4618 24.0692 67.3726 24.1807C67.2723 24.3033 67.2054 24.4148 67.1719 24.5151C67.1496 24.6043 67.1273 24.7826 67.1051 25.0502C67.0939 25.3065 67.0828 25.6075 67.0716 25.9531C67.0716 26.2875 67.0772 26.6442 67.0883 27.0233C67.0995 27.4023 67.1162 27.7478 67.1385 28.06C67.1608 28.3609 67.1942 28.6173 67.2388 28.8291C67.2834 29.0298 67.3392 29.1245 67.406 29.1134C67.4952 29.0354 67.6401 28.7734 67.8408 28.3275C67.9188 28.138 68.0136 27.8983 68.125 27.6085C68.2365 27.3075 68.3647 26.9452 68.5096 26.5216C68.6545 26.0869 68.8162 25.5797 68.9945 25C69.1841 24.4203 69.3959 23.7459 69.6299 22.9767H71.0847C71.1293 23.7348 71.1794 24.398 71.2352 24.9666C71.2909 25.5351 71.3467 26.0311 71.4024 26.4547C71.4581 26.8672 71.5083 27.2183 71.5529 27.5082C71.6086 27.7869 71.6644 28.0154 71.7201 28.1937C71.8427 28.6173 71.9653 28.8459 72.088 28.8793C72.1883 28.857 72.2942 28.7288 72.4057 28.4947C72.5283 28.2606 72.6398 27.9708 72.7401 27.6252C72.8516 27.2796 72.9519 26.9062 73.0411 26.5049C73.1302 26.0924 73.2083 25.7079 73.2752 25.3511C73.342 24.9944 73.3866 24.6823 73.4089 24.4148C73.4312 24.1472 73.4312 23.98 73.4089 23.9131C73.3755 23.8462 73.3086 23.7515 73.2083 23.6289C73.1191 23.5285 72.9965 23.4059 72.8404 23.261C72.6955 23.1161 72.4948 22.9433 72.2385 22.7426C72.5506 22.7984 72.846 22.8374 73.1247 22.8597C73.4145 22.8708 73.6709 22.882 73.8938 22.8931C74.1502 22.9043 74.3843 22.9043 74.5961 22.8931C74.8191 22.8931 75.0922 22.8876 75.4155 22.8764C75.6942 22.8653 76.0397 22.8597 76.4522 22.8597C76.8758 22.8597 77.3718 22.8485 77.9404 22.8262C77.4387 22.9823 77.0374 23.1328 76.7364 23.2777C76.4466 23.4115 76.2237 23.5397 76.0676 23.6623C75.8781 23.7961 75.7443 23.9243 75.6663 24.0469C75.5883 24.2141 75.4656 24.5652 75.2984 25.1003C75.2315 25.3233 75.1479 25.602 75.0476 25.9364C74.9473 26.2597 74.8302 26.6442 74.6965 27.0901C74.5627 27.536 74.4122 28.0544 74.245 28.6452C74.0778 29.2249 73.8883 29.8881 73.6765 30.635C73.5538 30.6127 73.4257 30.6016 73.2919 30.6016C73.1693 30.5904 73.0522 30.5849 72.9407 30.5849H72.5562C72.4224 30.596 72.2775 30.6072 72.1214 30.6183C71.9876 30.6295 71.8316 30.6462 71.6532 30.6685C71.4749 30.6908 71.2798 30.7186 71.068 30.7521L70.0647 26.6888L68.426 30.7521L66.5533 30.7019C66.3192 29.4423 66.1297 28.439 65.9847 27.6921C65.851 26.9341 65.7395 26.3544 65.6503 25.9531C65.55 25.4849 65.4831 25.1561 65.4497 24.9666C65.3939 24.7659 65.3103 24.5708 65.1988 24.3813C65.1097 24.2252 64.9815 24.0636 64.8143 23.8964C64.647 23.718 64.4408 23.5675 64.1956 23.4449Z" fill="black"/>
<path d="M80.5656 28.4613C80.8777 28.4613 81.1676 28.4278 81.4351 28.3609C81.658 28.3052 81.8698 28.216 82.0705 28.0934C82.2823 27.9596 82.4216 27.7646 82.4885 27.5082C82.7115 27.5528 82.901 27.5918 83.057 27.6252C83.2131 27.6475 83.3469 27.6698 83.4584 27.6921C83.581 27.7255 83.6869 27.7478 83.7761 27.759C83.8652 27.7813 83.9711 27.8036 84.0938 27.8259C84.2052 27.8482 84.339 27.876 84.4951 27.9095C84.6623 27.9318 84.8574 27.9652 85.0803 28.0098C84.9131 27.9875 84.7403 28.0042 84.562 28.06C84.3947 28.1157 84.2331 28.177 84.077 28.2439C83.8987 28.3219 83.7315 28.4167 83.5754 28.5282C83.4751 28.595 83.358 28.6954 83.2243 28.8291C83.1016 28.9629 82.9233 29.0911 82.6892 29.2137C82.4551 29.3363 82.143 29.4423 81.7528 29.5314C81.3738 29.6095 80.8833 29.6373 80.2813 29.615C79.5567 29.5927 78.9492 29.4645 78.4587 29.2304C77.9682 28.9852 77.5725 28.6898 77.2715 28.3442C76.9705 27.9875 76.7532 27.6029 76.6194 27.1905C76.4856 26.778 76.4132 26.3934 76.402 26.0367C76.3909 25.68 76.4968 25.3065 76.7197 24.9164C76.9427 24.5262 77.2548 24.1695 77.6561 23.8462C78.0686 23.523 78.5646 23.261 79.1443 23.0603C79.724 22.8485 80.3594 22.7426 81.0505 22.7426C81.4518 22.7426 81.8197 22.7928 82.1541 22.8931C82.4997 22.9823 82.8118 23.1049 83.0905 23.261C83.3803 23.4171 83.6311 23.5954 83.8429 23.7961C84.0547 23.9856 84.2331 24.1807 84.378 24.3813C84.5229 24.5931 84.6456 24.8161 84.7459 25.0502C84.8351 25.2508 84.9075 25.4793 84.9633 25.7357C85.019 25.9921 85.0357 26.2541 85.0134 26.5216C84.1662 26.5439 83.4806 26.5606 82.9567 26.5718C82.4439 26.5829 82.0426 26.5885 81.7528 26.5885H81.0003H80.4318C80.2312 26.5885 79.9692 26.5941 79.6459 26.6052C79.3227 26.6164 78.9269 26.6331 78.4587 26.6554C78.5145 27.1013 78.6538 27.4469 78.8768 27.6921C79.1109 27.9262 79.3561 28.1046 79.6125 28.2272C79.9023 28.3609 80.22 28.439 80.5656 28.4613ZM79.0607 25.4515C79.4174 25.4738 79.7128 25.4905 79.9469 25.5016C80.1922 25.5128 80.3928 25.5239 80.5489 25.5351C80.7161 25.5462 80.8499 25.5518 80.9502 25.5518H81.3682C81.6469 25.5518 82.1653 25.5351 82.9233 25.5016C82.8898 25.0111 82.7839 24.6377 82.6056 24.3813C82.4384 24.1249 82.26 23.9354 82.0705 23.8128C81.8475 23.679 81.6023 23.601 81.3348 23.5787C80.6102 23.5898 80.0695 23.7403 79.7128 24.0302C79.3672 24.32 79.1499 24.7938 79.0607 25.4515Z" fill="black"/>
<path d="M90.0298 28.4613C90.3419 28.4613 90.6317 28.4278 90.8993 28.3609C91.1222 28.3052 91.334 28.216 91.5347 28.0934C91.7465 27.9596 91.8858 27.7646 91.9527 27.5082C92.1757 27.5528 92.3652 27.5918 92.5212 27.6252C92.6773 27.6475 92.8111 27.6698 92.9225 27.6921C93.0452 27.7255 93.1511 27.7478 93.2402 27.759C93.3294 27.7813 93.4353 27.8036 93.5579 27.8259C93.6694 27.8482 93.8032 27.876 93.9592 27.9095C94.1265 27.9318 94.3215 27.9652 94.5445 28.0098C94.3773 27.9875 94.2045 28.0042 94.0261 28.06C93.8589 28.1157 93.6973 28.177 93.5412 28.2439C93.3629 28.3219 93.1956 28.4167 93.0396 28.5282C92.9393 28.595 92.8222 28.6954 92.6884 28.8291C92.5658 28.9629 92.3875 29.0911 92.1534 29.2137C91.9193 29.3363 91.6071 29.4423 91.217 29.5314C90.838 29.6095 90.3475 29.6373 89.7455 29.615C89.0209 29.5927 88.4134 29.4645 87.9229 29.2304C87.4324 28.9852 87.0367 28.6898 86.7357 28.3442C86.4347 27.9875 86.2173 27.6029 86.0836 27.1905C85.9498 26.778 85.8773 26.3934 85.8662 26.0367C85.8551 25.68 85.961 25.3065 86.1839 24.9164C86.4069 24.5262 86.719 24.1695 87.1203 23.8462C87.5327 23.523 88.0288 23.261 88.6085 23.0603C89.1881 22.8485 89.8235 22.7426 90.5147 22.7426C90.916 22.7426 91.2839 22.7928 91.6183 22.8931C91.9639 22.9823 92.276 23.1049 92.5547 23.261C92.8445 23.4171 93.0953 23.5954 93.3071 23.7961C93.5189 23.9856 93.6973 24.1807 93.8422 24.3813C93.9871 24.5931 94.1097 24.8161 94.2101 25.0502C94.2992 25.2508 94.3717 25.4793 94.4274 25.7357C94.4832 25.9921 94.4999 26.2541 94.4776 26.5216C93.6304 26.5439 92.9448 26.5606 92.4209 26.5718C91.9081 26.5829 91.5068 26.5885 91.217 26.5885H90.4645H89.896C89.6953 26.5885 89.4334 26.5941 89.1101 26.6052C88.7868 26.6164 88.3911 26.6331 87.9229 26.6554C87.9786 27.1013 88.118 27.4469 88.3409 27.6921C88.575 27.9262 88.8203 28.1046 89.0767 28.2272C89.3665 28.3609 89.6842 28.439 90.0298 28.4613ZM88.5249 25.4515C88.8816 25.4738 89.177 25.4905 89.4111 25.5016C89.6563 25.5128 89.857 25.5239 90.0131 25.5351C90.1803 25.5462 90.314 25.5518 90.4144 25.5518H90.8324C91.1111 25.5518 91.6294 25.5351 92.3875 25.5016C92.354 25.0111 92.2481 24.6377 92.0698 24.3813C91.9025 24.1249 91.7242 23.9354 91.5347 23.8128C91.3117 23.679 91.0665 23.601 90.7989 23.5787C90.0744 23.5898 89.5337 23.7403 89.177 24.0302C88.8314 24.32 88.614 24.7938 88.5249 25.4515Z" fill="black"/>
<path d="M94.9458 20.619C95.2802 20.6525 95.5589 20.6804 95.7819 20.7027C96.0159 20.7249 96.2055 20.7417 96.3504 20.7528C96.5176 20.764 96.6514 20.7695 96.7517 20.7695C96.852 20.7807 96.9858 20.7807 97.153 20.7695C97.2979 20.7584 97.4874 20.7472 97.7215 20.7361C97.9556 20.7138 98.251 20.6804 98.6077 20.6358C98.5297 20.7472 98.4684 20.8476 98.4238 20.9368C98.3792 21.0148 98.3402 21.0872 98.3067 21.1541L98.2064 21.3548C98.1841 21.4217 98.1618 21.4885 98.1395 21.5554C98.1172 21.6112 98.0949 21.6781 98.0727 21.7561C98.0615 21.8341 98.0504 21.9177 98.0392 22.0069H100.614L100.38 23.3613L98.0225 23.2276C97.9668 23.7961 97.9277 24.2364 97.9054 24.5485C97.8831 24.8607 97.8609 25.0892 97.8386 25.2341L97.8051 25.5351C97.7717 25.9587 97.7382 26.4213 97.7048 26.9229C97.6713 27.4134 97.6602 27.8705 97.6713 28.2941C97.6825 28.7177 97.7215 29.0744 97.7884 29.3642C97.8553 29.6429 97.9723 29.7822 98.1395 29.7822C98.3067 29.7822 98.4628 29.7377 98.6077 29.6485C98.7526 29.5593 98.8753 29.4534 98.9756 29.3308C99.0871 29.2082 99.1707 29.0855 99.2264 28.9629C99.2821 28.8291 99.31 28.7288 99.31 28.6619C99.31 28.595 99.2933 28.517 99.2599 28.4278C99.2041 28.2606 99.1038 28.0488 98.9589 27.7924C99.2821 27.8705 99.5664 27.9485 99.8117 28.0265C99.9343 28.0711 100.046 28.1157 100.146 28.1603C100.258 28.2049 100.386 28.255 100.531 28.3108C100.653 28.3665 100.809 28.4334 100.999 28.5114C101.188 28.5895 101.411 28.6842 101.668 28.7957C101.422 28.8403 101.244 28.9127 101.133 29.0131C101.066 29.0577 101.016 29.1078 100.982 29.1636C100.904 29.2862 100.815 29.4534 100.715 29.6652C100.614 29.8659 100.464 30.0665 100.263 30.2672C100.062 30.4678 99.7894 30.6462 99.4438 30.8022C99.1094 30.9583 98.6579 31.0475 98.0894 31.0698C97.4986 31.0921 97.0471 30.9917 96.735 30.7688C96.434 30.5458 96.211 30.2895 96.0661 29.9996C95.9323 29.6986 95.8543 29.4032 95.832 29.1134C95.8097 28.8236 95.793 28.6285 95.7819 28.5282C95.7707 28.4278 95.7707 28.177 95.7819 27.7757C95.793 27.3744 95.8097 26.9341 95.832 26.4547C95.8543 25.9642 95.8766 25.4961 95.8989 25.0502C95.9212 24.5931 95.9323 24.2587 95.9323 24.0469C95.9323 23.9354 95.9379 23.8184 95.9491 23.6957C95.9491 23.5954 95.9491 23.4895 95.9491 23.378C95.9602 23.2554 95.9658 23.1384 95.9658 23.0269L93.5412 23.0102L93.4409 22.0571L95.8822 22.124C95.8599 22.0013 95.832 21.8899 95.7986 21.7895C95.7763 21.6781 95.754 21.5889 95.7317 21.522C95.6982 21.444 95.6648 21.3771 95.6314 21.3213C95.5868 21.2656 95.5366 21.2043 95.4809 21.1374C95.4251 21.0817 95.3527 21.0092 95.2635 20.92C95.1743 20.8309 95.0684 20.7305 94.9458 20.619Z" fill="black"/>
<path d="M100.129 22.6089C100.352 22.6423 100.553 22.6702 100.731 22.6925C100.899 22.7036 101.049 22.7148 101.183 22.7259C101.328 22.7371 101.467 22.7426 101.601 22.7426C101.723 22.7426 101.88 22.7371 102.069 22.7259C102.225 22.7148 102.426 22.7036 102.671 22.6925C102.927 22.6702 103.228 22.6423 103.574 22.6089C103.552 22.6535 103.507 22.7928 103.44 23.0269C103.373 23.2498 103.306 23.5285 103.239 23.863C103.173 24.1862 103.111 24.5485 103.056 24.9498C103.011 25.34 102.989 25.7302 102.989 26.1203C103 26.4993 103.05 26.8616 103.139 27.2072C103.228 27.5416 103.373 27.8147 103.574 28.0265C103.998 28.4613 104.371 28.7232 104.694 28.8124C105.029 28.9016 105.318 28.8905 105.564 28.779C105.809 28.6675 106.01 28.5003 106.166 28.2773C106.322 28.0544 106.433 27.8482 106.5 27.6587C106.667 27.1459 106.768 26.6052 106.801 26.0367C106.823 25.5462 106.784 25 106.684 24.398C106.584 23.7961 106.344 23.183 105.965 22.5587C106.255 22.581 106.506 22.5977 106.717 22.6089C106.929 22.62 107.113 22.6312 107.269 22.6423C107.448 22.6535 107.604 22.6646 107.737 22.6758C107.86 22.6869 108.005 22.6869 108.172 22.6758C108.317 22.6758 108.49 22.6702 108.691 22.659C108.902 22.6367 109.136 22.6144 109.393 22.5921C109.437 23.6846 109.476 24.66 109.51 25.5184C109.543 26.3656 109.566 27.118 109.577 27.7757C109.599 28.4223 109.61 28.9852 109.61 29.4645C109.61 29.9327 109.61 30.3285 109.61 30.6517C109.599 31.4209 109.566 31.9281 109.51 32.1734C109.421 32.5189 109.259 32.8645 109.025 33.2101C108.802 33.5557 108.518 33.8622 108.172 34.1297C107.827 34.4084 107.425 34.6202 106.968 34.7652C106.522 34.9212 106.032 34.977 105.497 34.9324C104.973 34.8878 104.555 34.8153 104.243 34.715C103.942 34.6258 103.702 34.5199 103.524 34.3973C103.357 34.2747 103.234 34.1465 103.156 34.0127C103.089 33.8789 103.039 33.7396 103.005 33.5947C102.972 33.4609 102.939 33.3327 102.905 33.2101C102.872 33.0875 102.805 32.9816 102.704 32.8924C102.582 32.7921 102.454 32.6917 102.32 32.5914C102.197 32.5022 102.063 32.413 101.919 32.3239C101.785 32.2347 101.651 32.1622 101.517 32.1065L105.079 31.9058C104.978 32.0396 104.906 32.1622 104.861 32.2737C104.817 32.3852 104.789 32.4799 104.778 32.558C104.767 32.6583 104.772 32.7419 104.795 32.8088C104.839 32.9425 104.917 33.0875 105.029 33.2435C105.151 33.4107 105.307 33.5389 105.497 33.6281C105.686 33.7284 105.909 33.7619 106.166 33.7284C106.433 33.695 106.734 33.5557 107.069 33.3104C107.347 33.0986 107.581 32.7586 107.771 32.2904C107.927 31.8891 108.05 31.3262 108.139 30.6016C108.228 29.877 108.211 28.9239 108.089 27.7423C107.888 28.4334 107.615 28.9629 107.269 29.3308C106.924 29.6986 106.578 29.9662 106.233 30.1334C105.831 30.334 105.413 30.4399 104.978 30.4511C104.399 30.4288 103.903 30.3563 103.49 30.2337C103.078 30.0999 102.738 29.9216 102.47 29.6986C102.203 29.4757 101.991 29.2137 101.835 28.9127C101.69 28.6006 101.584 28.255 101.517 27.876C101.45 27.497 101.417 27.118 101.417 26.739C101.417 26.3488 101.417 25.9865 101.417 25.6521C101.428 25.3177 101.434 25.0167 101.434 24.7492C101.434 24.4705 101.406 24.2475 101.35 24.0803C101.283 23.9131 101.194 23.7459 101.082 23.5787C100.993 23.4338 100.871 23.2777 100.715 23.1105C100.547 22.9321 100.352 22.7649 100.129 22.6089Z" fill="black"/>
</svg>
